<svg width="44" height="61" viewBox="0 0 44 61" fill="none" xmlns="http://www.w3.org/2000/svg">
<rect x="7.5" y="0.5" width="30" height="60" rx="3.5" fill="white" stroke="#9898A3"/>
<rect x="9" y="2" width="27" height="57" rx="2" fill="#EAF5F9"/>
<path d="M20 4H24" stroke="#9898A3" stroke-linecap="round"/>
<path d="M0 42C0 38.134 3.13401 35 7 35H37C40.866 35 44 38.134 44 42C44 45.866 40.866 49 37 49H7C3.13401 49 0 45.866 0 42Z" fill="url(#paint0_linear_64_823)"/>
<path d="M15.0641 38.246V42.831H14.4901V38.246H15.0641ZM10.6191 40.22C10.6191 40.843 11.0811 41.277 11.6901 41.277C12.3131 41.277 12.7751 40.843 12.7751 40.22C12.7751 39.611 12.3131 39.177 11.6901 39.177C11.0811 39.177 10.6191 39.611 10.6191 40.22ZM13.3351 40.22C13.3351 41.13 12.6281 41.774 11.6901 41.774C10.7591 41.774 10.0591 41.13 10.0591 40.22C10.0591 39.317 10.7591 38.68 11.6901 38.68C12.6281 38.68 13.3351 39.317 13.3351 40.22ZM11.5991 43.909H15.2531V44.378H11.0251V42.362H11.5991V43.909ZM16.5965 40.843L16.3935 40.388C17.5065 40.269 18.5145 39.723 18.5425 39.023H16.5965V38.561H21.2375V39.023H19.2845C19.3125 39.723 20.3205 40.269 21.4335 40.388L21.2305 40.843C20.2015 40.717 19.2565 40.262 18.9135 39.576C18.5635 40.262 17.6255 40.717 16.5965 40.843ZM18.9065 44.056C19.8865 44.056 20.4745 43.811 20.4745 43.37C20.4745 42.936 19.8865 42.684 18.9065 42.684C17.9195 42.684 17.3385 42.936 17.3385 43.37C17.3385 43.811 17.9195 44.056 18.9065 44.056ZM18.9065 42.236C20.2435 42.236 21.0555 42.642 21.0555 43.37C21.0555 44.105 20.2435 44.511 18.9065 44.511C17.5625 44.511 16.7575 44.105 16.7575 43.37C16.7575 42.642 17.5625 42.236 18.9065 42.236ZM16.0715 41.228H21.7485V41.69H16.0715V41.228ZM23.12 39.765C23.12 40.248 23.533 40.563 24.135 40.563C24.723 40.563 25.143 40.248 25.143 39.765C25.143 39.289 24.723 38.967 24.135 38.967C23.533 38.967 23.12 39.289 23.12 39.765ZM26.13 41.438L26.172 41.858C24.863 42.096 23.372 42.117 22.301 42.117L22.224 41.648C22.707 41.648 23.274 41.641 23.855 41.62V40.99C23.092 40.899 22.588 40.437 22.588 39.765C22.588 39.03 23.218 38.533 24.135 38.533C25.045 38.533 25.682 39.03 25.682 39.765C25.682 40.43 25.178 40.892 24.429 40.983V41.599C25.01 41.564 25.591 41.522 26.13 41.438ZM23.701 42.642V43.902H27.32V44.371H23.127V42.642H23.701ZM27.096 40.367H28.02V40.843H27.096V43.048H26.522V38.246H27.096V40.367ZM30.5465 42.082V43.272H31.9815V42.082H30.5465ZM32.5485 43.272H34.0885V43.741H28.3835V43.272H29.9795V42.082H29.0975V40.143H32.8215V39.17H29.0835V38.701H33.3815V40.605H29.6645V41.613H33.5285V42.082H32.5485V43.272Z" fill="white"/>
<path d="M22.5 14L15.1028 16.125C15.1028 16.125 14.8716 20.375 15.1028 22.9722C15.2822 24.9883 16.3678 26.0161 17.6456 27.4583C19.2584 29.2788 22.7312 31 22.7312 31C22.7312 31 25.8785 29.2023 27.3545 27.4583C28.6506 25.9269 29.7327 24.9896 29.8973 22.9722C30.1284 20.1389 29.8973 16.125 29.8973 16.125L22.5 14Z" fill="url(#paint1_linear_64_823)"/>
<path d="M19.2227 21.252L21.7661 23.9872" stroke="white" stroke-linecap="round"/>
<path d="M26.2227 19L21.7897 24" stroke="white" stroke-linecap="round"/>
<defs>
<linearGradient id="paint0_linear_64_823" x1="0" y1="38.5" x2="44" y2="38.5" gradientUnits="userSpaceOnUse">
<stop stop-color="#FD7061"/>
<stop offset="1" stop-color="#F43D1F"/>
</linearGradient>
<linearGradient id="paint1_linear_64_823" x1="15.1027" y1="22.5003" x2="29.8972" y2="22.4997" gradientUnits="userSpaceOnUse">
<stop stop-color="#83CFF4"/>
<stop offset="1" stop-color="#49B0E5"/>
</linearGradient>
</defs>
</svg>
