<svg width="70" height="76" viewBox="0 0 70 76" fill="none" xmlns="http://www.w3.org/2000/svg">
<g filter="url(#filter0_d_64_827)">
<path fill-rule="evenodd" clip-rule="evenodd" d="M2 16.2627V63C2 65.2091 3.79086 67 6 67H53C55.2091 67 57 65.2091 57 63V4C57 1.79086 55.2091 0 53 0H16.1663L2 16.2627Z" fill="#F2F4F7"/>
</g>
<path d="M11.6992 20.6914H47.6992" stroke="#E4E8EF" stroke-width="2" stroke-linecap="round"/>
<path d="M11.6992 28.5737H47.6992" stroke="#E4E8EF" stroke-width="2" stroke-linecap="round"/>
<path d="M11.6992 36.4561H47.6992" stroke="#E4E8EF" stroke-width="2" stroke-linecap="round"/>
<path d="M11.6992 44.3384H47.6992" stroke="#E4E8EF" stroke-width="2" stroke-linecap="round"/>
<path d="M11.6992 52.2207H30.6992" stroke="#E4E8EF" stroke-width="2" stroke-linecap="round"/>
<path d="M16 14.5882C16 16.0317 16 15.9999 14.6 15.9999L2 16L16 0V14.5882Z" fill="#D6DCEA"/>
<circle cx="54.5" cy="60.5" r="15.5" fill="#22D379"/>
<path d="M47 60L52.7024 64.9757" stroke="white" stroke-width="2" stroke-linecap="round"/>
<path d="M61.0005 56L52.7519 65.0002" stroke="white" stroke-width="2" stroke-linecap="round"/>
<defs>
<filter id="filter0_d_64_827" x="0" y="0" width="63" height="75" filterUnits="userSpaceOnUse" color-interpolation-filters="sRGB">
<feFlood flood-opacity="0" result="BackgroundImageFix"/>
<feColorMatrix in="SourceAlpha" type="matrix" values="0 0 0 0 0 0 0 0 0 0 0 0 0 0 0 0 0 0 127 0" result="hardAlpha"/>
<feOffset dx="2" dy="4"/>
<feGaussianBlur stdDeviation="2"/>
<feComposite in2="hardAlpha" operator="out"/>
<feColorMatrix type="matrix" values="0 0 0 0 0.133333 0 0 0 0 0.133333 0 0 0 0 0.133333 0 0 0 0.15 0"/>
<feBlend mode="normal" in2="BackgroundImageFix" result="effect1_dropShadow_64_827"/>
<feBlend mode="normal" in="SourceGraphic" in2="effect1_dropShadow_64_827" result="shape"/>
</filter>
</defs>
</svg>
