<svg width="75" height="85" viewBox="0 0 75 85" fill="none" xmlns="http://www.w3.org/2000/svg">
<g filter="url(#filter0_d_64_825)">
<g filter="url(#filter1_d_64_825)">
<path fill-rule="evenodd" clip-rule="evenodd" d="M13.999 26.9898V76C13.999 78.2091 15.7899 80 17.999 80H65.999C68.2082 80 69.999 78.2091 69.999 76V14C69.999 11.7909 68.2082 10 65.999 10H28.422L13.999 26.9898Z" fill="#F2F4F7"/>
</g>
<g filter="url(#filter2_d_64_825)">
<path fill-rule="evenodd" clip-rule="evenodd" d="M6.99902 22.9903V71C6.99902 73.2091 8.78989 75 10.999 75H58.999C61.2082 75 62.999 73.2091 62.999 71V9C62.999 6.79086 61.2082 5 58.999 5H22.2713L6.99902 22.9903ZM13.8308 5H6.99902V5.77439L13.8308 5Z" fill="#F2F4F7"/>
</g>
</g>
<g filter="url(#filter3_d_64_825)">
<path fill-rule="evenodd" clip-rule="evenodd" d="M2 18.2627V65C2 67.2091 3.79086 69 6 69H52.9001C55.1092 69 56.9001 67.2091 56.9001 65V6C56.9001 3.79086 55.1092 2 52.9001 2H16.1406L2 18.2627Z" fill="#F2F4F7"/>
</g>
<path d="M22.7891 21.5591H49.74" stroke="#E4E8EF" stroke-width="2" stroke-linecap="round"/>
<path d="M22.7891 29.7944L49.74 29.7944" stroke="#E4E8EF" stroke-width="2" stroke-linecap="round"/>
<path d="M10.9834 38H49.9125" stroke="#E4E8EF" stroke-width="2" stroke-linecap="round"/>
<path d="M10.3975 47.2939H49.3266" stroke="#E4E8EF" stroke-width="2" stroke-linecap="round"/>
<path d="M10.3975 55.5293H30.3611" stroke="#E4E8EF" stroke-width="2" stroke-linecap="round"/>
<path fill-rule="evenodd" clip-rule="evenodd" d="M20.0711 28.4598C20.4511 28.059 20.4505 27.4098 20.0698 27.0097C19.6891 26.6096 19.0724 26.6101 18.6924 27.0109L13.6481 32.3307L11.0481 29.866C10.6472 29.486 10.0313 29.5183 9.67234 29.938C9.31337 30.3577 9.3473 31.006 9.74812 31.3859L13.0124 34.4802C13.0709 34.5357 13.134 34.5824 13.2003 34.6204C13.5737 34.851 14.0618 34.7974 14.3819 34.4598L20.0711 28.4598Z" fill="#5628EE"/>
<path fill-rule="evenodd" clip-rule="evenodd" d="M20.0711 20.2244C20.4511 19.8237 20.4505 19.1744 20.0698 18.7743C19.6891 18.3742 19.0724 18.3748 18.6924 18.7755L13.6479 24.0956L11.0481 21.6311C10.6472 21.2512 10.0313 21.2834 9.67234 21.7031C9.31337 22.1229 9.3473 22.7711 9.74812 23.1511L13.0124 26.2453C13.0742 26.3039 13.1411 26.3527 13.2115 26.3918C13.5835 26.6145 14.065 26.5586 14.3819 26.2244L20.0711 20.2244Z" fill="#5628EE"/>
<path d="M15.874 16.5882C15.874 18.0317 15.874 17.9999 14.4765 17.9999L1.89941 18L15.874 2V16.5882Z" fill="#D6DCEA"/>
<defs>
<filter id="filter0_d_64_825" x="3.99902" y="2" width="71" height="83" filterUnits="userSpaceOnUse" color-interpolation-filters="sRGB">
<feFlood flood-opacity="0" result="BackgroundImageFix"/>
<feColorMatrix in="SourceAlpha" type="matrix" values="0 0 0 0 0 0 0 0 0 0 0 0 0 0 0 0 0 0 127 0" result="hardAlpha"/>
<feOffset dx="1" dy="1"/>
<feGaussianBlur stdDeviation="2"/>
<feComposite in2="hardAlpha" operator="out"/>
<feColorMatrix type="matrix" values="0 0 0 0 0.133333 0 0 0 0 0.133333 0 0 0 0 0.133333 0 0 0 0.15 0"/>
<feBlend mode="normal" in2="BackgroundImageFix" result="effect1_dropShadow_64_825"/>
<feBlend mode="normal" in="SourceGraphic" in2="effect1_dropShadow_64_825" result="shape"/>
</filter>
<filter id="filter1_d_64_825" x="13.999" y="10" width="58" height="72" filterUnits="userSpaceOnUse" color-interpolation-filters="sRGB">
<feFlood flood-opacity="0" result="BackgroundImageFix"/>
<feColorMatrix in="SourceAlpha" type="matrix" values="0 0 0 0 0 0 0 0 0 0 0 0 0 0 0 0 0 0 127 0" result="hardAlpha"/>
<feOffset dx="1" dy="1"/>
<feGaussianBlur stdDeviation="0.5"/>
<feComposite in2="hardAlpha" operator="out"/>
<feColorMatrix type="matrix" values="0 0 0 0 0.133333 0 0 0 0 0.133333 0 0 0 0 0.133333 0 0 0 0.1 0"/>
<feBlend mode="normal" in2="BackgroundImageFix" result="effect1_dropShadow_64_825"/>
<feBlend mode="normal" in="SourceGraphic" in2="effect1_dropShadow_64_825" result="shape"/>
</filter>
<filter id="filter2_d_64_825" x="5.99902" y="4" width="62" height="76" filterUnits="userSpaceOnUse" color-interpolation-filters="sRGB">
<feFlood flood-opacity="0" result="BackgroundImageFix"/>
<feColorMatrix in="SourceAlpha" type="matrix" values="0 0 0 0 0 0 0 0 0 0 0 0 0 0 0 0 0 0 127 0" result="hardAlpha"/>
<feOffset dx="2" dy="2"/>
<feGaussianBlur stdDeviation="1.5"/>
<feComposite in2="hardAlpha" operator="out"/>
<feColorMatrix type="matrix" values="0 0 0 0 0 0 0 0 0 0 0 0 0 0 0 0 0 0 0.1 0"/>
<feBlend mode="normal" in2="BackgroundImageFix" result="effect1_dropShadow_64_825"/>
<feBlend mode="normal" in="SourceGraphic" in2="effect1_dropShadow_64_825" result="shape"/>
</filter>
<filter id="filter3_d_64_825" x="0" y="0" width="62.9004" height="75" filterUnits="userSpaceOnUse" color-interpolation-filters="sRGB">
<feFlood flood-opacity="0" result="BackgroundImageFix"/>
<feColorMatrix in="SourceAlpha" type="matrix" values="0 0 0 0 0 0 0 0 0 0 0 0 0 0 0 0 0 0 127 0" result="hardAlpha"/>
<feOffset dx="2" dy="2"/>
<feGaussianBlur stdDeviation="2"/>
<feComposite in2="hardAlpha" operator="out"/>
<feColorMatrix type="matrix" values="0 0 0 0 0.133333 0 0 0 0 0.133333 0 0 0 0 0.133333 0 0 0 0.1 0"/>
<feBlend mode="normal" in2="BackgroundImageFix" result="effect1_dropShadow_64_825"/>
<feBlend mode="normal" in="SourceGraphic" in2="effect1_dropShadow_64_825" result="shape"/>
</filter>
</defs>
</svg>
