<svg width="59" height="51" viewBox="0 0 59 51" fill="none" xmlns="http://www.w3.org/2000/svg">
<g clip-path="url(#clip0_1514_3284)">
<path fill-rule="evenodd" clip-rule="evenodd" d="M23.8142 3.17252C26.3427 -1.05848 32.6207 -1.05848 35.1497 3.17252L58.0812 41.5405C60.6241 45.796 57.5506 50.55 52.4931 50.55H6.59065C1.53365 50.55 -1.66085 45.796 0.882651 41.5405L23.8142 3.17252Z" fill="#FFCC00"/>
<path fill-rule="evenodd" clip-rule="evenodd" d="M29.0498 35.05C28.3953 35.05 27.0498 34.6045 27.0498 33.05V17.05C27.0498 16.3955 28.3953 15.05 29.0498 15.05C30.6043 15.05 31.0498 16.3955 31.0498 17.05V33.05C31.0498 34.6045 30.6043 35.05 29.0498 35.05ZM29.4993 37.05C30.6038 37.05 31.4993 38.3955 31.4993 39.05C31.4993 40.6045 30.6038 41.05 29.4993 41.05C28.3948 41.05 27.4993 40.6045 27.4993 39.05C27.4993 38.3955 28.3948 37.05 29.4993 37.05Z" fill="white"/>
</g>
<defs>
<clipPath id="clip0_1514_3284">
<rect width="59" height="51" fill="white"/>
</clipPath>
</defs>
</svg>
