<svg width="56" height="56" viewBox="0 0 56 56" fill="none" xmlns="http://www.w3.org/2000/svg">
<g clip-path="url(#clip0_1514_3285)">
<path fill-rule="evenodd" clip-rule="evenodd" d="M27.9985 -0.000488281C43.463 -0.000488281 55.9985 12.5355 55.9985 27.9995C55.9985 43.4635 43.463 55.9995 27.9985 55.9995C12.5345 55.9995 -0.000976562 43.4635 -0.000976562 27.9995C-0.000976562 12.5355 12.5345 -0.000488281 27.9985 -0.000488281Z" fill="#FF4949"/>
<path fill-rule="evenodd" clip-rule="evenodd" d="M27.5498 34.55C26.8953 34.55 25.5498 34.1045 25.5498 32.55V16.55C25.5498 15.8955 26.8953 14.55 27.5498 14.55C29.1043 14.55 29.5498 15.8955 29.5498 16.55V32.55C29.5498 34.1045 29.1043 34.55 27.5498 34.55ZM27.9993 36.55C29.1043 36.55 29.9993 37.8955 29.9993 38.55C29.9993 40.1045 29.1043 40.55 27.9993 40.55C26.8948 40.55 25.9993 40.1045 25.9993 38.55C25.9993 37.8955 26.8948 36.55 27.9993 36.55Z" fill="white"/>
</g>
<defs>
<clipPath id="clip0_1514_3285">
<rect width="56" height="56" fill="white"/>
</clipPath>
</defs>
</svg>
