<svg width="21" height="21" viewBox="0 0 21 21" fill="none" xmlns="http://www.w3.org/2000/svg">
<path d="M9.17528 2.05016C13.1662 2.0033 16.44 5.26217 16.4878 9.32907C16.508 11.0462 15.9475 12.631 14.9954 13.8948L18.0332 16.7616C18.3322 17.0442 18.3563 17.5311 18.087 17.849C17.8175 18.1663 17.3565 18.195 17.0574 17.9128L13.9712 14.9996C12.7279 16.0892 11.1166 16.7569 9.34821 16.7777C5.35735 16.8244 2.08343 13.5657 2.03568 9.49876C1.98801 5.43191 5.18447 2.0971 9.17528 2.05016ZM9.19289 3.55006C6.05702 3.58696 3.49732 6.21585 3.53558 9.48115C3.57392 12.7465 6.19467 15.3145 9.3306 15.2778C12.4666 15.2409 15.0263 12.6121 14.9879 9.34668C14.9495 6.08134 12.3288 3.51324 9.19289 3.55006Z" fill="black"/>
</svg>
