<svg width="360" height="44" viewBox="0 0 360 44" fill="none" xmlns="http://www.w3.org/2000/svg">
<rect width="360" height="44" fill="white"/>
<rect opacity="0.35" x="321.833" y="17.833" width="21" height="10.3333" rx="2.16667" stroke="#3C3C43" stroke-opacity="0.6"/>
<path opacity="0.4" d="M344.333 20.9995V24.9995C345.138 24.6607 345.662 23.8726 345.662 22.9995C345.662 22.1264 345.138 21.3383 344.333 20.9995Z" fill="#3C3C43" fill-opacity="0.6"/>
<rect x="323.333" y="19.333" width="18" height="7.33333" rx="1.33333" fill="black"/>
<path fill-rule="evenodd" clip-rule="evenodd" d="M306.448 25.7573C307.729 24.675 309.605 24.675 310.886 25.7573C310.95 25.8155 310.987 25.8981 310.989 25.9848C310.991 26.0714 310.956 26.1546 310.895 26.2153L308.89 28.2377C308.831 28.2971 308.751 28.3305 308.667 28.3305C308.583 28.3305 308.503 28.2971 308.444 28.2377L306.438 26.2153C306.377 26.1546 306.343 26.0712 306.345 25.9848C306.347 25.8981 306.384 25.8154 306.448 25.7573ZM303.772 23.06C306.532 20.4956 310.804 20.4957 313.563 23.06C313.626 23.1201 313.661 23.2029 313.662 23.2895C313.663 23.3758 313.629 23.4587 313.568 23.52L312.409 24.6908C312.29 24.8102 312.097 24.812 311.975 24.6957C311.069 23.876 309.889 23.4222 308.667 23.4223C307.446 23.4228 306.268 23.8767 305.362 24.6957C305.24 24.8121 305.046 24.8104 304.927 24.6908L303.769 23.52C303.707 23.4588 303.673 23.3759 303.674 23.2895C303.675 23.203 303.71 23.1201 303.772 23.06ZM301.097 20.3696C305.328 16.3175 312.004 16.3176 316.236 20.3696C316.298 20.4298 316.333 20.5122 316.333 20.5981C316.333 20.6838 316.3 20.7667 316.239 20.8276L315.079 21.9975C314.96 22.1176 314.765 22.1187 314.644 22.0004C313.031 20.469 310.892 19.6148 308.667 19.6147C306.442 19.6147 304.302 20.4688 302.689 22.0004C302.568 22.1188 302.374 22.1176 302.255 21.9975L301.094 20.8276C301.033 20.7667 301 20.6838 301 20.5981C301.001 20.5122 301.035 20.4297 301.097 20.3696Z" fill="black"/>
<path d="M281 24.3335C281.552 24.3335 282 24.7812 282 25.3335V27.3335C282 27.8856 281.552 28.3335 281 28.3335H280C279.448 28.3335 279 27.8856 279 27.3335V25.3335C279 24.7812 279.448 24.3335 280 24.3335H281ZM285.667 22.3335C286.219 22.3337 286.667 22.7813 286.667 23.3335V27.3335C286.667 27.8855 286.219 28.3333 285.667 28.3335H284.667C284.115 28.3335 283.667 27.8856 283.667 27.3335V23.3335C283.667 22.7812 284.115 22.3335 284.667 22.3335H285.667ZM290.333 19.9995C290.885 19.9995 291.333 20.4474 291.333 20.9995V27.3335C291.333 27.8856 290.885 28.3335 290.333 28.3335H289.333C288.781 28.3333 288.333 27.8855 288.333 27.3335V20.9995C288.333 20.4475 288.781 19.9997 289.333 19.9995H290.333ZM295 17.6665C295.552 17.6665 296 18.1142 296 18.6665V27.3335C296 27.8856 295.552 28.3335 295 28.3335H294C293.448 28.3335 293 27.8856 293 27.3335V18.6665C293 18.1142 293.448 17.6665 294 17.6665H295Z" fill="black"/>
<path d="M25.334 17.9648C27.2754 17.9785 29.1895 19.127 29.2031 22.75C29.2031 26.168 27.6582 28.1367 25.2246 28.1367C23.3105 28.1367 21.998 26.9473 21.7793 25.3066H23.543C23.7207 26.0859 24.3223 26.5918 25.2246 26.5918C26.6602 26.5918 27.4668 25.3203 27.4805 23.2012H27.3711C26.8652 24.0625 25.9219 24.5684 24.8281 24.5684C23.0645 24.5684 21.6973 23.2285 21.6836 21.3555C21.6836 19.4141 23.1328 17.9512 25.334 17.9648ZM25.3477 19.4004C24.2402 19.4004 23.4062 20.2617 23.4199 21.3145C23.4199 22.3809 24.2129 23.2148 25.3203 23.2148C26.4141 23.2148 27.2754 22.3262 27.2617 21.3008C27.2617 20.2891 26.4551 19.4004 25.3477 19.4004ZM31.4934 26.7695C30.9055 26.7695 30.427 26.291 30.427 25.7031C30.427 25.1289 30.9055 24.6504 31.4934 24.6504C32.054 24.6504 32.5462 25.1289 32.5462 25.7031C32.5462 26.291 32.054 26.7695 31.4934 26.7695ZM31.4934 21.4648C30.9055 21.4648 30.427 20.9863 30.427 20.3984C30.427 19.8242 30.9055 19.3457 31.4934 19.3457C32.054 19.3457 32.5462 19.8242 32.5462 20.3984C32.5462 20.9863 32.054 21.4648 31.4934 21.4648ZM33.7564 26.1543V24.7324L38.0357 18.1016H40.2505V24.6914H41.5494V26.1543H40.2505V28H38.5552V26.1543H33.7564ZM35.5748 24.6914H38.5826V20.125H38.4732L35.5748 24.623V24.6914ZM46.5741 18.1016V28H44.783V19.8379H44.7284L42.4178 21.3145V19.6875L44.8651 18.1016H46.5741Z" fill="black"/>
</svg>
