<svg width="87" height="63" viewBox="0 0 87 63" fill="none" xmlns="http://www.w3.org/2000/svg">
<path d="M4 3C4 1.34314 5.34315 0 7 0H72C73.6569 0 75 1.34315 75 3V49H4V3Z" fill="#F2F4F7"/>
<path d="M0 48H79V51C79 52.6569 77.6569 54 76 54H3C1.34314 54 0 52.6569 0 51V48Z" fill="#D6DCEA"/>
<path d="M44 36.5C44 38.9853 41.9853 41 39.5 41C37.0147 41 35 38.9853 35 36.5C35 34.0147 37.0147 32 39.5 32C41.9853 32 44 34.0147 44 36.5ZM37.4947 36.5C37.4947 37.6075 38.3925 38.5053 39.5 38.5053C40.6075 38.5053 41.5053 37.6075 41.5053 36.5C41.5053 35.3925 40.6075 34.4947 39.5 34.4947C38.3925 34.4947 37.4947 35.3925 37.4947 36.5Z" fill="#D6DCEA"/>
<path d="M32 29C35.2812 24.9075 42.5 25.0936 46 29" stroke="#D6DCEA" stroke-width="3" stroke-linecap="round"/>
<path d="M28 23.9999C33.1562 17.1792 44.5 17.4893 50 24" stroke="#D6DCEA" stroke-width="3" stroke-linecap="round"/>
<path d="M24 18.9999C31.2656 9.45082 47.25 9.88496 55 19" stroke="#D6DCEA" stroke-width="3" stroke-linecap="round"/>
<circle cx="71.5" cy="47.5" r="15.5" fill="#FF4949"/>
<path d="M65 54L78 41.1307" stroke="white" stroke-width="1.5" stroke-linecap="round"/>
<path d="M65 41L78 53.8693" stroke="white" stroke-width="1.5" stroke-linecap="round"/>
</svg>
