<svg width="44" height="61" viewBox="0 0 44 61" fill="none" xmlns="http://www.w3.org/2000/svg">
<rect x="7.5" y="0.5" width="30" height="60" rx="3.5" fill="white" stroke="#9898A3"/>
<rect x="9" y="2" width="27" height="57" rx="2" fill="#EAF5F9"/>
<path d="M20 4H24" stroke="#9898A3" stroke-linecap="round"/>
<path d="M0 42C0 38.134 3.13401 35 7 35H37C40.866 35 44 38.134 44 42C44 45.866 40.866 49 37 49H7C3.13401 49 0 45.866 0 42Z" fill="#7BDAFF"/>
<path d="M18.0139 22C18.0139 22 17.9082 19.7425 18.2795 18.3952C18.5839 17.2903 18.8117 16.5579 19.6485 15.8506C21.0338 14.6795 22.7103 14.7541 24.1467 15.8506C25.0474 16.5381 25.3663 17.2574 25.7113 18.3952C26.1162 19.7308 25.9768 22 25.9768 22" stroke="#9898A3" stroke-linecap="round"/>
<path d="M9.5265 44.464L8.8225 43.952L9.8305 42.288L8.0865 41.568L8.3745 40.752L10.1985 41.2L10.3585 39.264H11.2225L11.3825 41.184L13.2065 40.752L13.4785 41.568L11.7345 42.288L12.7585 43.952L12.0545 44.464L10.7905 42.944L9.5265 44.464ZM16.9953 44.464L16.2913 43.952L17.2993 42.288L15.5553 41.568L15.8433 40.752L17.6673 41.2L17.8273 39.264H18.6913L18.8513 41.184L20.6753 40.752L20.9473 41.568L19.2033 42.288L20.2273 43.952L19.5233 44.464L18.2593 42.944L16.9953 44.464ZM24.464 44.464L23.76 43.952L24.768 42.288L23.024 41.568L23.312 40.752L25.136 41.2L25.296 39.264H26.16L26.32 41.184L28.144 40.752L28.416 41.568L26.672 42.288L27.696 43.952L26.992 44.464L25.728 42.944L24.464 44.464ZM31.9328 44.464L31.2288 43.952L32.2368 42.288L30.4928 41.568L30.7808 40.752L32.6048 41.2L32.7648 39.264H33.6288L33.7888 41.184L35.6128 40.752L35.8848 41.568L34.1408 42.288L35.1648 43.952L34.4608 44.464L33.1968 42.944L31.9328 44.464Z" fill="white"/>
<rect x="16" y="19" width="12" height="12" rx="2" fill="#FFCE3C"/>
<circle cx="22" cy="24" r="1" fill="white"/>
<path d="M22 25L22 28" stroke="white" stroke-linecap="round"/>
</svg>
