<svg width="24" height="24" viewBox="0 0 24 24" fill="none" xmlns="http://www.w3.org/2000/svg">
<path d="M11.9996 17.243C14.6707 17.243 16.8361 15.1112 16.8361 12.4814C16.8361 9.85159 14.6707 7.71973 11.9996 7.71973C9.32845 7.71973 7.16309 9.85159 7.16309 12.4814C7.16309 15.1112 9.32845 17.243 11.9996 17.243Z" stroke="#2B5AFE" stroke-width="1.2" stroke-linecap="round" stroke-linejoin="round"/>
<path d="M12.0003 14.8618C13.3358 14.8618 14.4185 13.7958 14.4185 12.4809C14.4185 11.166 13.3358 10.1001 12.0003 10.1001C10.6647 10.1001 9.58203 11.166 9.58203 12.4809C9.58203 13.7958 10.6647 14.8618 12.0003 14.8618Z" stroke="#2B5AFE" stroke-width="1.2" stroke-linecap="round" stroke-linejoin="round"/>
<path d="M20.6667 4.80549H17.6825C17.4591 4.80549 17.2507 4.70496 17.1271 4.53763L16.3872 3.53574C16.1401 3.20112 15.7232 3 15.2767 3H8.70666C8.26013 3 7.84319 3.2011 7.59606 3.53574L6.85613 4.53763C6.7326 4.70497 6.52413 4.80549 6.30086 4.80549H3.33333C2.59693 4.80549 2 5.3426 2 6.00508V19.8004C2 20.4629 2.59693 21 3.33333 21H20.6667C21.4031 21 22 20.4629 22 19.8004V6.00507C22 5.3426 21.4031 4.80549 20.6667 4.80549Z" stroke="#2B5AFE" stroke-width="1.2" stroke-linecap="round" stroke-linejoin="round"/>
</svg>
