<svg width="36" height="36" viewBox="0 0 36 36" fill="none" xmlns="http://www.w3.org/2000/svg">
<g clip-path="url(#clip0_1466_3776)">
<path fill-rule="evenodd" clip-rule="evenodd" d="M17.9995 0C27.941 0 36 8.059 36 18C36 27.9415 27.941 36 17.9995 36C8.059 36 0 27.9415 0 18C0 8.059 8.059 0 17.9995 0Z" fill="#DFE4EB"/>
<path fill-rule="evenodd" clip-rule="evenodd" d="M17.9985 0C27.94 0 35.999 8.0585 35.999 17.9995C35.999 27.941 27.94 35.9995 17.9985 35.9995C8.05802 35.9995 -0.000976562 27.941 -0.000976562 17.9995C-0.000976562 8.0585 8.05802 0 17.9985 0Z" fill="url(#paint0_linear_1466_3776)"/>
<mask id="mask0_1466_3776" style="mask-type:alpha" maskUnits="userSpaceOnUse" x="0" y="0" width="18" height="23">
<path fill-rule="evenodd" clip-rule="evenodd" d="M0 0H17.9995V17.9995L0 22.55V0Z" fill="#DFE4EB"/>
</mask>
<g mask="url(#mask0_1466_3776)">
<path d="M17.9995 0C27.941 0 36 8.0585 36 17.9995C36 27.941 27.941 35.9995 17.9995 35.9995C8.059 35.9995 0 27.941 0 17.9995C0 8.0585 8.059 0 17.9995 0Z" fill="url(#paint1_linear_1466_3776)"/>
</g>
<mask id="mask1_1466_3776" style="mask-type:alpha" maskUnits="userSpaceOnUse" x="0" y="0" width="18" height="23">
<path fill-rule="evenodd" clip-rule="evenodd" d="M0 0H17.9995V17.9995L0 22.55V0Z" fill="#DFE4EB"/>
</mask>
<g mask="url(#mask1_1466_3776)">
<path d="M17.9995 0C27.941 0 36 8.0585 36 17.9995C36 27.941 27.941 35.9995 17.9995 35.9995C8.059 35.9995 0 27.941 0 17.9995C0 8.0585 8.059 0 17.9995 0Z" fill="#DFE4EB"/>
</g>
<path fill-rule="evenodd" clip-rule="evenodd" d="M17.9985 5.49951C24.9025 5.49951 30.4985 11.096 30.4985 17.9995C30.4985 24.903 24.9025 30.4995 17.9985 30.4995C11.095 30.4995 5.49902 24.903 5.49902 17.9995C5.49902 11.096 11.095 5.49951 17.9985 5.49951Z" fill="white"/>
</g>
<defs>
<linearGradient id="paint0_linear_1466_3776" x1="-0.000976562" y1="35.9995" x2="-0.000976562" y2="0" gradientUnits="userSpaceOnUse">
<stop stop-color="#5374F6"/>
<stop offset="0.44" stop-color="#2AA3DA"/>
<stop offset="1" stop-color="#00D1BE"/>
</linearGradient>
<linearGradient id="paint1_linear_1466_3776" x1="0" y1="35.9995" x2="0" y2="0" gradientUnits="userSpaceOnUse">
<stop stop-color="#5374F6"/>
<stop offset="0.44" stop-color="#2AA3DA"/>
<stop offset="1" stop-color="#00D1BE"/>
</linearGradient>
<clipPath id="clip0_1466_3776">
<rect width="36" height="36" fill="white"/>
</clipPath>
</defs>
</svg>
