<svg width="24" height="24" viewBox="0 0 24 24" fill="none" xmlns="http://www.w3.org/2000/svg">
<g clip-path="url(#clip0_1143_2466)">
<path fill-rule="evenodd" clip-rule="evenodd" d="M6 6.25773C6 6.06273 6.07565 5.86673 6.22591 5.71823C6.52696 5.42023 7.0153 5.42023 7.31635 5.71823L11.7459 10.1532L16.1765 5.71823C16.477 5.42023 16.9659 5.42023 17.2664 5.71823C17.5675 6.01573 17.5675 6.49923 17.2664 6.79723L12.2911 11.7717C11.9906 12.0702 11.5017 12.0702 11.2012 11.7717L6.22591 6.79723C6.07565 6.64823 6 6.45273 6 6.25773Z" fill="#878D95"/>
</g>
<g clip-path="url(#clip1_1143_2466)">
<path fill-rule="evenodd" clip-rule="evenodd" d="M6 13.2577C6 13.0627 6.07565 12.8667 6.22591 12.7182C6.52696 12.4202 7.0153 12.4202 7.31635 12.7182L11.7459 17.1532L16.1765 12.7182C16.477 12.4202 16.9659 12.4202 17.2664 12.7182C17.5675 13.0157 17.5675 13.4992 17.2664 13.7972L12.2911 18.7717C11.9906 19.0702 11.5017 19.0702 11.2012 18.7717L6.22591 13.7972C6.07565 13.6482 6 13.4527 6 13.2577Z" fill="#878D95"/>
</g>
<defs>
<clipPath id="clip0_1143_2466">
<rect width="12" height="7" fill="white" transform="matrix(1 0 0 -1 6 12)"/>
</clipPath>
<clipPath id="clip1_1143_2466">
<rect width="12" height="7" fill="white" transform="matrix(1 0 0 -1 6 19)"/>
</clipPath>
</defs>
</svg>
