<svg width="20" height="20" viewBox="0 0 20 20" fill="none" xmlns="http://www.w3.org/2000/svg">
<path fill-rule="evenodd" clip-rule="evenodd" d="M7.73182 2.33108C9.64095 1.76506 11.6932 1.92957 13.4877 2.79202C14.6805 3.36544 15.702 4.22052 16.473 5.27053V3.59964C16.4732 3.1857 16.8091 2.84982 17.223 2.84964C17.637 2.84979 17.9728 3.18568 17.973 3.59964V7.54983H14.018C13.604 7.54965 13.2681 7.21384 13.268 6.79983C13.2681 6.38589 13.604 6.05001 14.018 6.04983H15.5512C14.8905 5.12632 14.0046 4.37464 12.9652 3.87503C11.4405 3.14221 9.69678 3.0025 8.0746 3.48343C6.45235 3.96447 5.06692 5.03151 4.18983 6.47659C3.31279 7.92164 3.00686 9.64132 3.33046 11.2998C3.65414 12.9584 4.58447 14.4377 5.94081 15.4483C7.29712 16.4588 8.98193 16.929 10.6664 16.7666C12.3508 16.6043 13.9144 15.8211 15.0521 14.5703C16.0429 13.481 16.6028 12.4236 16.7308 11.0528C16.7634 10.705 17.0427 10.4209 17.392 10.4209C17.7411 10.421 18.0276 10.7049 17.9984 11.0528C17.8561 12.7345 17.1369 14.066 15.9437 15.378C14.6048 16.8502 12.7641 17.7718 10.7816 17.9629C8.79951 18.1538 6.81712 17.6012 5.22108 16.4121C3.62487 15.2228 2.52879 13.4822 2.14784 11.5303C1.7669 9.57835 2.12832 7.55428 3.16053 5.85354C4.19276 4.15294 5.82269 2.8972 7.73182 2.33108Z" fill="black"/>
</svg>
