<svg width="20" height="20" viewBox="0 0 20 20" fill="none" xmlns="http://www.w3.org/2000/svg">
<path d="M17.5 11C18.0523 11 18.5 10.5523 18.5 10C18.5 9.44772 18.0523 9 17.5 9V10V11ZM1.79289 9.29289C1.40237 9.68342 1.40237 10.3166 1.79289 10.7071L8.15685 17.0711C8.54738 17.4616 9.18054 17.4616 9.57107 17.0711C9.96159 16.6805 9.96159 16.0474 9.57107 15.6569L3.91421 10L9.57107 4.34315C9.96159 3.95262 9.96159 3.31946 9.57107 2.92893C9.18054 2.53841 8.54738 2.53841 8.15685 2.92893L1.79289 9.29289ZM17.5 10V9L2.5 9V10V11L17.5 11V10Z" fill="black"/>
</svg>
